<?xml version="1.0" encoding="UTF-8"?>
<!DOCTYPE svg PUBLIC "-//W3C//DTD SVG 1.1//EN" "http://www.w3.org/Graphics/SVG/1.1/DTD/svg11.dtd">
<svg xmlns="http://www.w3.org/2000/svg" version="1.1" width="1920px" height="498px" style="shape-rendering:geometricPrecision; text-rendering:geometricPrecision; image-rendering:optimizeQuality; fill-rule:evenodd; clip-rule:evenodd" xmlns:xlink="http://www.w3.org/1999/xlink">
<g><path style="opacity:0.983" fill="#231f20" d="M 170.5,3.5 C 235.941,1.46997 287.108,27.1366 324,80.5C 336.253,101.593 344.753,124.093 349.5,148C 392.146,156.398 427.979,176.564 457,208.5C 495.839,260.341 505.506,317.341 486,379.5C 462.057,438.07 419.224,474.57 357.5,489C 347.263,491.071 336.93,492.405 326.5,493C 219.501,493.5 112.501,493.667 5.5,493.5C 4.71991,413.498 3.71991,333.498 2.5,253.5C 3.06213,225.834 3.56213,198.168 4,170.5C 9.48606,105.301 40.3194,56.4678 96.5,24C 119.982,12.4657 144.649,5.63237 170.5,3.5 Z"/></g>
<g><path style="opacity:1" fill="#fdfdfd" d="M 161.5,31.5 C 195.275,28.1533 226.942,34.6533 256.5,51C 287.925,71.6533 308.758,100.153 319,136.5C 321.819,148.389 323.986,160.389 325.5,172.5C 358.983,175.944 389.316,187.444 416.5,207C 457.383,242.961 474.217,288.128 467,342.5C 454.535,406.302 416.701,446.135 353.5,462C 347.878,463.258 342.211,464.258 336.5,465C 234.846,466.463 133.18,466.963 31.5,466.5C 30.8586,368.167 30.6919,269.834 31,171.5C 36.6325,112.023 66.1325,69.1892 119.5,43C 133.285,37.8201 147.285,33.9868 161.5,31.5 Z"/></g>
<g><path style="opacity:1" fill="#d42136" d="M 162.5,54.5 C 217.149,51.7309 257.649,74.0643 284,121.5C 292.104,138.247 295.937,155.913 295.5,174.5C 216.166,174.667 136.833,174.5 57.5,174C 59.6067,118.495 86.6067,80.4954 138.5,60C 146.505,57.5696 154.505,55.7362 162.5,54.5 Z"/></g>
<g><path style="opacity:0.968" fill="#221f1f" d="M 1086.5,100.5 C 1110.63,100.46 1121.79,112.46 1120,136.5C 1113.1,155.366 1099.94,162.199 1080.5,157C 1065.71,149.238 1060.21,137.071 1064,120.5C 1068.28,110.049 1075.78,103.382 1086.5,100.5 Z"/></g>
<g><path style="opacity:0.97" fill="#221f1f" d="M 1430.5,100.5 C 1454.14,100.305 1465.31,111.972 1464,135.5C 1458.92,153.464 1447.09,160.964 1428.5,158C 1410.89,151.618 1404.05,139.118 1408,120.5C 1412.25,110.079 1419.75,103.413 1430.5,100.5 Z"/></g>
<g><path style="opacity:0.997" fill="#221f1f" d="M 919.5,117.5 C 935.837,117.333 952.17,117.5 968.5,118C 969.333,118.833 970.167,119.667 971,120.5C 971.667,188.167 971.667,255.833 971,323.5C 970.535,324.931 969.701,326.097 968.5,327C 952.5,327.667 936.5,327.667 920.5,327C 919.667,326.167 918.833,325.333 918,324.5C 917.333,256.167 917.333,187.833 918,119.5C 918.717,118.956 919.217,118.289 919.5,117.5 Z"/></g>
<g><path style="opacity:0.997" fill="#221f1f" d="M 994.5,117.5 C 1010.5,117.333 1026.5,117.5 1042.5,118C 1043.7,118.903 1044.53,120.069 1045,121.5C 1045.67,188.833 1045.67,256.167 1045,323.5C 1043.79,325.049 1042.29,326.215 1040.5,327C 1025.5,327.667 1010.5,327.667 995.5,327C 994.5,326.5 993.5,326 992.5,325.5C 991.333,256.836 991.167,188.169 992,119.5C 992.995,118.934 993.828,118.267 994.5,117.5 Z"/></g>
<g><path style="opacity:0.986" fill="#231f20" d="M 572.5,123.5 C 608.526,123.061 644.526,123.561 680.5,125C 702.532,126.918 719.365,137.084 731,155.5C 735.109,167.587 736.109,179.921 734,192.5C 732.393,198.381 729.726,203.714 726,208.5C 721.454,212.714 716.621,216.547 711.5,220C 741.292,229.165 754.125,249.331 750,280.5C 746.01,298.488 735.51,310.988 718.5,318C 710.353,320.787 702.02,322.787 693.5,324C 653.183,325.572 612.849,325.906 572.5,325C 571.069,324.535 569.903,323.701 569,322.5C 567.341,257.582 567.007,192.582 568,127.5C 569.397,125.93 570.897,124.596 572.5,123.5 Z M 625.5,171.5 C 639.133,171.682 652.799,171.849 666.5,172C 679.333,175.834 683.5,184.001 679,196.5C 676.161,200.502 672.327,202.835 667.5,203.5C 653.5,203.5 639.5,203.5 625.5,203.5C 625.5,192.833 625.5,182.167 625.5,171.5 Z M 676.5,244.5 C 691.309,252.268 693.309,262.768 682.5,276C 679.043,277.743 675.377,278.743 671.5,279C 656.17,279.5 640.837,279.667 625.5,279.5C 625.5,267.833 625.5,256.167 625.5,244.5C 642.5,244.5 659.5,244.5 676.5,244.5 Z"/></g>
<g><path style="opacity:0.796" fill="#3a3939" d="M 1897.5,159.5 C 1911.66,157.497 1918.16,163.497 1917,177.5C 1913.25,185.286 1907.09,188.119 1898.5,186C 1890.47,181.75 1887.97,175.25 1891,166.5C 1892.69,163.642 1894.86,161.309 1897.5,159.5 Z M 1897.5,166.5 C 1905.59,161.529 1910.92,163.862 1913.5,173.5C 1911.65,180.484 1909.65,180.818 1907.5,174.5C 1908.79,171.966 1908.79,169.466 1907.5,167C 1904.18,166.502 1900.85,166.335 1897.5,166.5 Z M 1897.5,166.5 C 1897.67,170.846 1897.5,175.179 1897,179.5C 1893.53,174.845 1893.7,170.512 1897.5,166.5 Z M 1901.5,169.5 C 1902.68,169.281 1903.68,169.614 1904.5,170.5C 1902.95,171.798 1901.95,171.465 1901.5,169.5 Z M 1901.5,174.5 C 1903.73,175.401 1904.73,177.067 1904.5,179.5C 1906.1,179.312 1907.44,179.812 1908.5,181C 1905.17,183 1901.83,183 1898.5,181C 1899.45,180.517 1900.45,180.351 1901.5,180.5C 1901.5,178.5 1901.5,176.5 1901.5,174.5 Z"/></g>
<g><path style="opacity:0.977" fill="#221f1f" d="M 1186.5,167.5 C 1206.27,166.179 1225.27,169.346 1243.5,177C 1247.44,178.886 1250.94,181.386 1254,184.5C 1254.7,187.928 1254.37,191.262 1253,194.5C 1249.47,200.221 1246.47,206.221 1244,212.5C 1242.51,214.985 1240.68,217.152 1238.5,219C 1236.17,219.667 1233.83,219.667 1231.5,219C 1222.14,214.485 1212.47,210.818 1202.5,208C 1195.85,206.779 1189.69,207.946 1184,211.5C 1183.2,213.259 1183.37,214.926 1184.5,216.5C 1196.06,221.89 1208.06,226.057 1220.5,229C 1235.86,234.574 1248.02,244.074 1257,257.5C 1264.14,279.204 1259.97,298.371 1244.5,315C 1230.13,324.321 1214.29,328.488 1197,327.5C 1178.58,326.438 1160.75,322.605 1143.5,316C 1137.75,313.711 1132.58,310.545 1128,306.5C 1127.25,303.697 1127.58,301.03 1129,298.5C 1133.67,291.167 1138.33,283.833 1143,276.5C 1145.58,274.653 1148.41,274.153 1151.5,275C 1162.24,280.702 1173.57,284.702 1185.5,287C 1192.7,288.054 1199.7,287.388 1206.5,285C 1209.31,283.412 1209.98,281.245 1208.5,278.5C 1206.66,277.081 1204.66,275.914 1202.5,275C 1184.04,273.474 1167.04,267.807 1151.5,258C 1133.59,241.193 1128.42,221.026 1136,197.5C 1143.05,183.548 1154.21,174.715 1169.5,171C 1175.3,169.816 1180.97,168.649 1186.5,167.5 Z"/></g>
<g><path style="opacity:0.977" fill="#221f1f" d="M 1322.5,167.5 C 1344.25,165.634 1364.92,169.468 1384.5,179C 1390.3,181.76 1392.46,186.26 1391,192.5C 1387.15,199.711 1383.48,207.044 1380,214.5C 1377.18,218.663 1373.35,220.163 1368.5,219C 1358.67,213.917 1348.33,210.251 1337.5,208C 1332.27,207.023 1327.27,207.69 1322.5,210C 1319.73,212.966 1320.07,215.633 1323.5,218C 1334.72,221.972 1346.05,225.638 1357.5,229C 1370.65,233.991 1381.81,241.825 1391,252.5C 1402.56,277.659 1398.06,299.492 1377.5,318C 1365.47,324.909 1352.47,328.075 1338.5,327.5C 1315.88,326.929 1294.22,322.096 1273.5,313C 1270.58,310.955 1267.74,308.788 1265,306.5C 1264.16,302.88 1264.83,299.546 1267,296.5C 1271.8,289.068 1276.97,281.902 1282.5,275C 1284.83,274.333 1287.17,274.333 1289.5,275C 1306.26,285.697 1324.26,289.03 1343.5,285C 1346.61,282.695 1346.94,280.195 1344.5,277.5C 1342.61,276.391 1340.61,275.557 1338.5,275C 1320.34,273.504 1303.68,267.837 1288.5,258C 1269.93,240.401 1265.09,219.568 1274,195.5C 1279.41,185.708 1287.24,178.542 1297.5,174C 1305.75,171.022 1314.08,168.855 1322.5,167.5 Z"/></g>
<g><path style="opacity:0.981" fill="#221f1f" d="M 1813.5,167.5 C 1843.58,166.464 1868.08,177.464 1887,200.5C 1902.19,226.992 1904.52,254.658 1894,283.5C 1881.33,308.807 1860.83,323.307 1832.5,327C 1800.14,332.767 1772.64,323.934 1750,300.5C 1730.83,272.767 1727.49,243.1 1740,211.5C 1751.83,188.317 1770.66,174.483 1796.5,170C 1802.32,169.191 1807.98,168.358 1813.5,167.5 Z M 1809.5,215.5 C 1837.31,215.063 1849.47,228.73 1846,256.5C 1843.28,269.554 1835.45,277.721 1822.5,281C 1796.08,281.233 1784.24,268.066 1787,241.5C 1789.41,228.269 1796.91,219.602 1809.5,215.5 Z"/></g>
<g><path style="opacity:0.981" fill="#221f1f" d="M 1565.5,168.5 C 1582.42,167.062 1597.75,171.229 1611.5,181C 1615.19,184.21 1618.02,188.044 1620,192.5C 1639.54,169.328 1663.7,162.828 1692.5,173C 1706.34,179.841 1715.5,190.674 1720,205.5C 1722.97,215.615 1724.64,225.948 1725,236.5C 1725.83,264.839 1725.67,293.173 1724.5,321.5C 1723.69,321.808 1723.03,322.308 1722.5,323C 1706.17,323.667 1689.83,323.667 1673.5,323C 1673,322.5 1672.5,322 1672,321.5C 1670.89,314.576 1670.39,307.576 1670.5,300.5C 1671.96,277.822 1671.79,255.155 1670,232.5C 1665.7,220.945 1657.53,216.779 1645.5,220C 1638,222.167 1633.17,227 1631,234.5C 1628.39,258.446 1627.89,282.446 1629.5,306.5C 1629.61,311.278 1629.11,315.944 1628,320.5C 1627.17,321.333 1626.33,322.167 1625.5,323C 1609.16,323.833 1592.82,323.666 1576.5,322.5C 1575.47,321.3 1574.64,319.966 1574,318.5C 1573.67,289.5 1573.33,260.5 1573,231.5C 1570.19,223.204 1564.36,218.871 1555.5,218.5C 1544.99,219.536 1537.82,224.869 1534,234.5C 1532.52,246.281 1531.69,258.115 1531.5,270C 1532.4,285.828 1532.57,301.662 1532,317.5C 1531.71,319.931 1530.54,321.764 1528.5,323C 1512.5,323.667 1496.5,323.667 1480.5,323C 1479.67,322.167 1478.83,321.333 1478,320.5C 1477.33,271.833 1477.33,223.167 1478,174.5C 1478.83,173.667 1479.67,172.833 1480.5,172C 1496.83,171.333 1513.17,171.333 1529.5,172C 1532.3,176.097 1534.13,180.597 1535,185.5C 1543.54,176.814 1553.71,171.147 1565.5,168.5 Z"/></g>
<g><path style="opacity:0.977" fill="#221f1f" d="M 816.5,170.5 C 868.959,166.471 898.459,190.471 905,242.5C 905.876,249.321 905.209,255.988 903,262.5C 901.581,263.46 900.081,264.293 898.5,265C 867.828,265.167 837.161,265.667 806.5,266.5C 811.957,281.654 822.79,289.32 839,289.5C 852.263,289.308 863.43,284.475 872.5,275C 876.925,272.817 880.925,273.484 884.5,277C 889.667,282.167 894.833,287.333 900,292.5C 902,295.5 902,298.5 900,301.5C 873.178,328.498 841.344,336.665 804.5,326C 764.915,310.366 747.749,281.199 753,238.5C 758.638,201.036 779.805,178.37 816.5,170.5 Z M 826.5,210.5 C 843.187,208.975 852.854,216.309 855.5,232.5C 838.833,232.5 822.167,232.5 805.5,232.5C 807.752,220.582 814.752,213.249 826.5,210.5 Z"/></g>
<g><path style="opacity:0.992" fill="#221f1f" d="M 1069.5,170.5 C 1083.84,170.333 1098.17,170.5 1112.5,171C 1114.68,171.163 1116.51,171.996 1118,173.5C 1118.67,224.167 1118.67,274.833 1118,325.5C 1117.5,326 1117,326.5 1116.5,327C 1100.17,327.667 1083.83,327.667 1067.5,327C 1066.67,326.167 1065.83,325.333 1065,324.5C 1064.33,274.167 1064.33,223.833 1065,173.5C 1066.41,172.219 1067.91,171.219 1069.5,170.5 Z"/></g>
<g><path style="opacity:0.992" fill="#221f1f" d="M 1413.5,170.5 C 1427.84,170.333 1442.17,170.5 1456.5,171C 1458.68,171.163 1460.51,171.996 1462,173.5C 1462.67,224.167 1462.67,274.833 1462,325.5C 1461.5,326 1461,326.5 1460.5,327C 1444.17,327.667 1427.83,327.667 1411.5,327C 1410.67,326.167 1409.83,325.333 1409,324.5C 1408.33,274.167 1408.33,223.833 1409,173.5C 1410.41,172.219 1411.91,171.219 1413.5,170.5 Z"/></g>
<g><path style="opacity:0.532" fill="#afadae" d="M 625.5,171.5 C 625.5,182.167 625.5,192.833 625.5,203.5C 639.5,203.5 653.5,203.5 667.5,203.5C 666.737,204.268 665.737,204.768 664.5,205C 650.808,205.76 637.141,205.594 623.5,204.5C 622.856,193.116 623.523,182.116 625.5,171.5 Z"/></g>
<g><path style="opacity:1" fill="#038044" d="M 185.5,201.5 C 222.5,201.5 259.5,201.5 296.5,201.5C 296.5,281.833 296.5,362.167 296.5,442.5C 216.5,442.5 136.5,442.5 56.5,442.5C 56.5,362.5 56.5,282.5 56.5,202.5C 99.6699,202.832 142.67,202.499 185.5,201.5 Z"/></g>
<g><path style="opacity:1" fill="#d41e35" d="M 323.5,202.5 C 377.496,204.9 414.996,230.9 436,280.5C 452.394,335.303 438.894,381.137 395.5,418C 373.968,433.344 349.968,441.177 323.5,441.5C 323.5,361.833 323.5,282.167 323.5,202.5 Z"/></g>
<g><path style="opacity:1" fill="#fdfdfd" d="M 164.5,227.5 C 211.545,225.096 245.045,245.096 265,287.5C 278.009,327.44 269.842,362.273 240.5,392C 208.227,418.118 172.894,423.118 134.5,407C 97.3237,386.159 79.8237,354.325 82,311.5C 88.1938,270.974 110.694,244.141 149.5,231C 154.6,229.676 159.6,228.509 164.5,227.5 Z"/></g>
<g><path style="opacity:0.745" fill="#c0bebf" d="M 676.5,244.5 C 659.5,244.5 642.5,244.5 625.5,244.5C 625.5,256.167 625.5,267.833 625.5,279.5C 623.521,267.88 622.854,255.88 623.5,243.5C 641.341,243.17 659.008,243.503 676.5,244.5 Z"/></g>
<g><path style="opacity:1" fill="#d41f35" d="M 168.5,254.5 C 208.248,253.446 233.082,272.113 243,310.5C 246.156,348.374 229.989,373.874 194.5,387C 157.546,394.273 130.713,381.106 114,347.5C 102.604,312.69 111.77,284.857 141.5,264C 150.034,259.102 159.034,255.935 168.5,254.5 Z"/></g>
<g><path style="opacity:0.971" fill="#221f1f" d="M 655.5,382.5 C 662.5,382.5 669.5,382.5 676.5,382.5C 676.5,415.167 676.5,447.833 676.5,480.5C 669.5,480.5 662.5,480.5 655.5,480.5C 655.5,447.833 655.5,415.167 655.5,382.5 Z"/></g>
<g><path style="opacity:0.97" fill="#231f20" d="M 586.5,445.5 C 585.566,446.568 585.232,447.901 585.5,449.5C 584.506,459.653 584.172,469.986 584.5,480.5C 580.833,480.5 577.167,480.5 573.5,480.5C 570.833,480.5 568.167,480.5 565.5,480.5C 565.5,448.5 565.5,416.5 565.5,384.5C 583.503,384.333 601.503,384.5 619.5,385C 633.722,389.582 641.055,399.415 641.5,414.5C 641.087,430.736 633.087,440.903 617.5,445C 607.172,445.5 596.839,445.666 586.5,445.5 Z M 586.5,402.5 C 594.903,402.13 603.236,402.63 611.5,404C 618.977,408.078 620.81,413.911 617,421.5C 615.062,424.106 612.562,425.939 609.5,427C 601.869,428.069 594.202,428.569 586.5,428.5C 586.5,419.833 586.5,411.167 586.5,402.5 Z"/></g>
<g><path style="opacity:0.956" fill="#221f1f" d="M 696.5,384.5 C 720.5,384.5 744.5,384.5 768.5,384.5C 768.305,388.547 768.638,392.547 769.5,396.5C 769,398.5 768.5,400.5 768,402.5C 751.525,423.276 734.692,443.776 717.5,464C 735.164,464.5 752.83,464.667 770.5,464.5C 770.5,470.5 770.5,476.5 770.5,482.5C 744.167,482.5 717.833,482.5 691.5,482.5C 689.733,474.978 690.233,467.644 693,460.5C 708.62,441.425 724.12,422.258 739.5,403C 725.171,402.5 710.837,402.333 696.5,402.5C 696.5,396.5 696.5,390.5 696.5,384.5 Z"/></g>
<g><path style="opacity:0.961" fill="#231f20" d="M 802.5,463.5 C 801.624,463.369 800.957,463.702 800.5,464.5C 818.154,465.5 835.821,465.833 853.5,465.5C 853.5,470.833 853.5,476.167 853.5,481.5C 827.455,481.815 801.455,481.482 775.5,480.5C 775.334,474.158 775.5,467.825 776,461.5C 792.212,442.29 808.045,422.79 823.5,403C 809.171,402.5 794.837,402.333 780.5,402.5C 780.5,396.5 780.5,390.5 780.5,384.5C 804.5,384.5 828.5,384.5 852.5,384.5C 852.55,388.188 852.884,391.855 853.5,395.5C 853.406,397.923 852.906,400.256 852,402.5C 835.666,422.997 819.166,443.331 802.5,463.5 Z"/></g>
<g><path style="opacity:0.954" fill="#221f1f" d="M 899.5,384.5 C 907.5,384.5 915.5,384.5 923.5,384.5C 936.157,416.798 948.823,449.131 961.5,481.5C 953.528,482.498 945.528,482.831 937.5,482.5C 936.037,475.234 933.704,468.234 930.5,461.5C 917.851,460.501 905.184,460.168 892.5,460.5C 890.777,467.669 888.444,474.669 885.5,481.5C 878.197,482.497 870.863,482.831 863.5,482.5C 864.483,477.046 865.983,471.713 868,466.5C 879.197,439.405 889.697,412.072 899.5,384.5 Z M 910.5,412.5 C 911.497,412.47 912.164,412.97 912.5,414C 915.932,422.794 919.265,431.628 922.5,440.5C 915.167,441.833 907.833,441.833 900.5,440.5C 904.038,431.219 907.371,421.886 910.5,412.5 Z"/></g>
<g><path style="opacity:0.909" fill="#989697" d="M 586.5,445.5 C 586.5,457.833 586.5,470.167 586.5,482.5C 579.087,483.128 572.087,482.461 565.5,480.5C 568.167,480.5 570.833,480.5 573.5,480.5C 577.298,481.483 581.298,481.817 585.5,481.5C 585.5,470.833 585.5,460.167 585.5,449.5C 585.232,447.901 585.566,446.568 586.5,445.5 Z"/></g>
<g><path style="opacity:0.838" fill="#9a9798" d="M 802.5,463.5 C 820.09,464.486 837.757,464.819 855.5,464.5C 855.5,470.5 855.5,476.5 855.5,482.5C 828.479,483.158 801.812,482.491 775.5,480.5C 801.455,481.482 827.455,481.815 853.5,481.5C 853.5,476.167 853.5,470.833 853.5,465.5C 835.821,465.833 818.154,465.5 800.5,464.5C 800.957,463.702 801.624,463.369 802.5,463.5 Z"/></g>
<g><path style="opacity:1" fill="#504c4d" d="M 585.5,449.5 C 585.5,460.167 585.5,470.833 585.5,481.5C 581.298,481.817 577.298,481.483 573.5,480.5C 577.167,480.5 580.833,480.5 584.5,480.5C 584.172,469.986 584.506,459.653 585.5,449.5 Z"/></g>
</svg>
