<?xml version="1.0" encoding="UTF-8"?>
<!DOCTYPE svg PUBLIC "-//W3C//DTD SVG 1.1//EN" "http://www.w3.org/Graphics/SVG/1.1/DTD/svg11.dtd">
<svg xmlns="http://www.w3.org/2000/svg" version="1.1" width="960px" height="960px" style="shape-rendering:geometricPrecision; text-rendering:geometricPrecision; image-rendering:optimizeQuality; fill-rule:evenodd; clip-rule:evenodd" xmlns:xlink="http://www.w3.org/1999/xlink">
<g><path style="opacity:1" fill="#e91d31" d="M 15.5,1.5 C 329.167,1.5 642.833,1.5 956.5,1.5C 956.5,2.16667 956.5,2.83333 956.5,3.5C 642.736,2.83404 329.069,2.16738 15.5,1.5 Z"/></g>
<g><path style="opacity:1" fill="#e61a26" d="M 5.5,1.5 C 8.83333,1.5 12.1667,1.5 15.5,1.5C 329.069,2.16738 642.736,2.83404 956.5,3.5C 956.5,3.83333 956.5,4.16667 956.5,4.5C 639.496,3.17024 322.496,3.17024 5.5,4.5C 5.5,3.5 5.5,2.5 5.5,1.5 Z"/></g>
<g><path style="opacity:1" fill="#ee1922" d="M 2.5,1.5 C 3.5,1.5 4.5,1.5 5.5,1.5C 5.5,2.5 5.5,3.5 5.5,4.5C 322.496,3.17024 639.496,3.17024 956.5,4.5C 956.5,4.83333 956.5,5.16667 956.5,5.5C 639.5,5.5 322.5,5.5 5.5,5.5C 4.83333,5.5 4.16667,5.5 3.5,5.5C 2.56552,4.43236 2.23219,3.09903 2.5,1.5 Z"/></g>
<g><path style="opacity:1" fill="#cc281f" d="M 5.5,5.5 C 322.5,5.5 639.5,5.5 956.5,5.5C 956.5,5.83333 956.5,6.16667 956.5,6.5C 954.388,7.27513 952.388,7.27513 950.5,6.5C 638,6.16684 325.666,6.50018 13.5,7.5C 11.3469,6.42708 9.3469,6.42708 7.5,7.5C 6.83333,7.5 6.16667,7.5 5.5,7.5C 5.5,6.83333 5.5,6.16667 5.5,5.5 Z"/></g>
<g><path style="opacity:1" fill="#ea1b29" d="M 946.5,7.5 C 946.67,8.82207 946.337,9.98873 945.5,11C 635.5,11.5 325.5,11.6667 15.5,11.5C 15.5,10.1667 15.5,8.83333 15.5,7.5C 325.833,7.5 636.167,7.5 946.5,7.5 Z"/></g>
<g><path style="opacity:1" fill="#dd2227" d="M 946.5,7.5 C 947.5,7.5 948.5,7.5 949.5,7.5C 950.067,9.96864 950.067,12.302 949.5,14.5C 637.871,14.1684 326.538,13.1684 15.5,11.5C 325.5,11.6667 635.5,11.5 945.5,11C 946.337,9.98873 946.67,8.82207 946.5,7.5 Z"/></g>
<g><path style="opacity:1" fill="#7d1a17" d="M -0.5,-0.5 C 318.833,-0.5 638.167,-0.5 957.5,-0.5C 957.5,0.166667 957.5,0.833333 957.5,1.5C 957.167,1.5 956.833,1.5 956.5,1.5C 642.833,1.5 329.167,1.5 15.5,1.5C 12.1667,1.5 8.83333,1.5 5.5,1.5C 4.5,1.5 3.5,1.5 2.5,1.5C 1.50017,319.666 1.16684,638 1.5,956.5C 1.5,956.833 1.5,957.167 1.5,957.5C 0.833333,957.5 0.166667,957.5 -0.5,957.5C -0.5,638.167 -0.5,318.833 -0.5,-0.5 Z"/></g>
<g><path style="opacity:1" fill="#db2632" d="M 2.5,1.5 C 2.23219,3.09903 2.56552,4.43236 3.5,5.5C 2.50077,322.431 2.16744,639.431 2.5,956.5C 2.16667,956.5 1.83333,956.5 1.5,956.5C 1.16684,638 1.50017,319.666 2.5,1.5 Z"/></g>
<g><path style="opacity:1" fill="#e71f2a" d="M 3.5,5.5 C 4.16667,5.5 4.83333,5.5 5.5,5.5C 5.5,6.16667 5.5,6.83333 5.5,7.5C 4.16667,163.832 3.50001,320.499 3.5,477.5C 3.50001,634.501 4.16667,791.168 5.5,947.5C 5.5,950.5 5.5,953.5 5.5,956.5C 4.5,956.5 3.5,956.5 2.5,956.5C 2.16744,639.431 2.50077,322.431 3.5,5.5 Z"/></g>
<g><path style="opacity:1" fill="#eb1920" d="M 5.5,7.5 C 5.5,320.833 5.5,634.167 5.5,947.5C 4.16667,791.168 3.50001,634.501 3.5,477.5C 3.50001,320.499 4.16667,163.832 5.5,7.5 Z"/></g>
<g><path style="opacity:1" fill="#d82421" d="M 5.5,7.5 C 6.16667,7.5 6.83333,7.5 7.5,7.5C 7.5,321.833 7.5,636.167 7.5,950.5C 8.91791,952.308 10.9179,952.975 13.5,952.5C 13.5,953.167 13.5,953.833 13.5,954.5C 13.5,955.167 13.5,955.833 13.5,956.5C 11.9878,954.683 9.98778,953.683 7.5,953.5C 7.71481,955.179 7.04814,956.179 5.5,956.5C 5.5,953.5 5.5,950.5 5.5,947.5C 5.5,634.167 5.5,320.833 5.5,7.5 Z"/></g>
<g><path style="opacity:1" fill="#ea1b29" d="M 13.5,7.5 C 13.5,8.83333 13.5,10.1667 13.5,11.5C 11.5007,323.832 10.834,636.498 11.5,949.5C 10.4324,950.434 9.09903,950.768 7.5,950.5C 7.5,636.167 7.5,321.833 7.5,7.5C 9.3469,6.42708 11.3469,6.42708 13.5,7.5 Z"/></g>
<g><path style="opacity:1" fill="#de2227" d="M 13.5,11.5 C 13.5019,323.921 13.5019,636.588 13.5,949.5C 12.8333,949.5 12.1667,949.5 11.5,949.5C 10.834,636.498 11.5007,323.832 13.5,11.5 Z"/></g>
<g><path style="opacity:1" fill="#e71e20" d="M 943.5,15.5 C 634.167,15.5 324.833,15.5 15.5,15.5C 15.5,324.833 15.5,634.167 15.5,943.5C 15.5,943.833 15.5,944.167 15.5,944.5C 15.5,944.833 15.5,945.167 15.5,945.5C 15.5,946.167 15.5,946.833 15.5,947.5C 326.853,949.17 638.519,950.17 950.5,950.5C 950.366,952.292 950.699,953.958 951.5,955.5C 950.833,955.5 950.167,955.5 949.5,955.5C 949.5,954.167 949.5,952.833 949.5,951.5C 947.5,951.5 945.5,951.5 943.5,951.5C 788.834,950.833 634,950.5 479,950.5C 323.832,950.5 168.999,951.167 14.5,952.5C 14.1667,952.5 13.8333,952.5 13.5,952.5C 10.9179,952.975 8.91791,952.308 7.5,950.5C 9.09903,950.768 10.4324,950.434 11.5,949.5C 12.1667,949.5 12.8333,949.5 13.5,949.5C 14.4998,638 14.8332,326.334 14.5,14.5C 324.334,14.1668 634,14.5002 943.5,15.5 Z"/></g>
<g><path style="opacity:1" fill="#e02121" d="M 950.5,6.5 C 950.5,6.83333 950.5,7.16667 950.5,7.5C 950.167,7.5 949.833,7.5 949.5,7.5C 948.5,7.5 947.5,7.5 946.5,7.5C 636.167,7.5 325.833,7.5 15.5,7.5C 15.5,8.83333 15.5,10.1667 15.5,11.5C 326.538,13.1684 637.871,14.1684 949.5,14.5C 949.5,14.8333 949.5,15.1667 949.5,15.5C 948.5,15.5 947.5,15.5 946.5,15.5C 946.44,14.9569 946.107,14.6236 945.5,14.5C 944.5,324.499 944.167,634.499 944.5,944.5C 634.833,944.5 325.167,944.5 15.5,944.5C 15.5,944.167 15.5,943.833 15.5,943.5C 324.833,943.5 634.167,943.5 943.5,943.5C 943.5,634.167 943.5,324.833 943.5,15.5C 634,14.5002 324.334,14.1668 14.5,14.5C 14.8332,326.334 14.4998,638 13.5,949.5C 13.5019,636.588 13.5019,323.921 13.5,11.5C 13.5,10.1667 13.5,8.83333 13.5,7.5C 325.666,6.50018 638,6.16684 950.5,6.5 Z"/></g>
<g><path style="opacity:1" fill="#e31f26" d="M 943.5,15.5 C 943.5,324.833 943.5,634.167 943.5,943.5C 634.167,943.5 324.833,943.5 15.5,943.5C 15.5,634.167 15.5,324.833 15.5,15.5C 324.833,15.5 634.167,15.5 943.5,15.5 Z"/></g>
<g><path style="opacity:1" fill="#e81d24" d="M 946.5,15.5 C 946.833,326 946.5,636.334 945.5,946.5C 635.569,945.501 325.569,945.167 15.5,945.5C 15.5,945.167 15.5,944.833 15.5,944.5C 325.167,944.5 634.833,944.5 944.5,944.5C 944.167,634.499 944.5,324.499 945.5,14.5C 946.107,14.6236 946.44,14.9569 946.5,15.5 Z"/></g>
<g><path style="opacity:1" fill="#ed1b24" d="M 949.5,7.5 C 949.833,7.5 950.167,7.5 950.5,7.5C 951.499,320.764 951.833,634.097 951.5,947.5C 950.833,636.833 950.167,326.167 949.5,15.5C 949.5,15.1667 949.5,14.8333 949.5,14.5C 950.067,12.302 950.067,9.96864 949.5,7.5 Z"/></g>
<g><path style="opacity:1" fill="#e0211f" d="M 950.5,6.5 C 952.388,7.27513 954.388,7.27513 956.5,6.5C 956.5,9.5 956.5,12.5 956.5,15.5C 954.832,326.205 953.832,637.205 953.5,948.5C 953.957,949.298 954.624,949.631 955.5,949.5C 956.369,951.717 956.702,954.05 956.5,956.5C 954.585,956.784 952.919,956.451 951.5,955.5C 950.699,953.958 950.366,952.292 950.5,950.5C 951.404,949.791 951.737,948.791 951.5,947.5C 951.833,634.097 951.499,320.764 950.5,7.5C 950.5,7.16667 950.5,6.83333 950.5,6.5 Z"/></g>
<g><path style="opacity:1" fill="#e71b29" d="M 956.5,15.5 C 956.833,327 956.5,638.334 955.5,949.5C 954.624,949.631 953.957,949.298 953.5,948.5C 953.832,637.205 954.832,326.205 956.5,15.5 Z"/></g>
<g><path style="opacity:1" fill="#8c4138" d="M 957.5,7.5 C 958.167,323.833 958.833,640.167 959.5,956.5C 959.5,956.833 959.5,957.167 959.5,957.5C 958.833,957.5 958.167,957.5 957.5,957.5C 957.5,640.833 957.5,324.167 957.5,7.5 Z"/></g>
<g><path style="opacity:1" fill="#67221d" d="M 957.5,-0.5 C 958.167,-0.5 958.833,-0.5 959.5,-0.5C 959.5,318.5 959.5,637.5 959.5,956.5C 958.833,640.167 958.167,323.833 957.5,7.5C 957.5,5.5 957.5,3.5 957.5,1.5C 957.5,0.833333 957.5,0.166667 957.5,-0.5 Z"/></g>
<g><path style="opacity:1" fill="#c62a3c" d="M 701.5,381.5 C 699.692,380.093 697.692,378.926 695.5,378C 686.424,377.087 677.424,377.42 668.5,379C 666.93,380.397 665.596,381.897 664.5,383.5C 664.167,383.5 663.833,383.5 663.5,383.5C 664.167,380.833 664.833,378.167 665.5,375.5C 676.853,375.168 688.186,375.501 699.5,376.5C 700.456,378.075 701.123,379.742 701.5,381.5 Z"/></g>
<g><path style="opacity:1" fill="#d3361b" d="M 479.5,378.5 C 460.097,376.192 442.097,379.858 425.5,389.5C 425.721,388.265 426.388,387.265 427.5,386.5C 429.99,384.917 432.657,383.917 435.5,383.5C 435.833,380.5 434.5,379.167 431.5,379.5C 431.5,378.167 431.5,376.833 431.5,375.5C 440.824,378.017 450.158,378.017 459.5,375.5C 466.262,376.842 472.929,377.842 479.5,378.5 Z"/></g>
<g><path style="opacity:1" fill="#d9311c" d="M 567.5,377.5 C 567.5,378.167 567.5,378.833 567.5,379.5C 562.388,381.594 557.055,383.428 551.5,385C 546.667,387.689 542,390.522 537.5,393.5C 538.719,391.364 539.552,389.031 540,386.5C 540.388,387.428 541.055,388.095 542,388.5C 545.146,386.678 548.312,385.012 551.5,383.5C 551.5,381.833 551.5,380.167 551.5,378.5C 553.308,378.509 554.975,378.009 556.5,377C 556.167,376.667 555.833,376.333 555.5,376C 559.806,375.088 563.806,375.588 567.5,377.5 Z"/></g>
<g><path style="opacity:1" fill="#ce5d09" d="M 567.5,377.5 C 578.552,376.857 589.219,377.524 599.5,379.5C 588.802,378.346 578.136,378.346 567.5,379.5C 567.5,378.833 567.5,378.167 567.5,377.5 Z"/></g>
<g><path style="opacity:1" fill="#c43e07" d="M 367.5,379.5 C 351.12,377.069 335.12,378.402 319.5,383.5C 321.59,381.28 324.257,379.78 327.5,379C 326.833,378.667 326.167,378.333 325.5,378C 332.5,377.833 339.5,377.667 346.5,377.5C 353.867,377.503 360.867,378.17 367.5,379.5 Z"/></g>
<g><path style="opacity:1" fill="#c72c38" d="M 763.5,377.5 C 754.167,377.5 744.833,377.5 735.5,377.5C 730.604,376.785 727.604,378.785 726.5,383.5C 724.167,388.167 721.833,392.833 719.5,397.5C 721.609,391.607 723.442,385.607 725,379.5C 726.487,378.845 727.653,377.845 728.5,376.5C 734.333,376.167 740.167,375.833 746,375.5C 752.207,375.504 758.04,376.171 763.5,377.5 Z"/></g>
<g><path style="opacity:1" fill="#fcca09" d="M 367.5,379.5 C 372.661,381.908 377.994,384.075 383.5,386C 386.383,388.74 389.716,390.74 393.5,392C 396.408,396.077 400.075,399.243 404.5,401.5C 404.539,402.583 404.873,403.583 405.5,404.5C 408.906,408.233 412.239,411.899 415.5,415.5C 415.5,416.5 415.5,417.5 415.5,418.5C 415.5,418.833 415.5,419.167 415.5,419.5C 417.808,427.855 420.308,436.188 423,444.5C 423.333,450.833 423.667,457.167 424,463.5C 424.754,466.684 426.254,469.351 428.5,471.5C 429.974,473.979 430.974,476.646 431.5,479.5C 435.568,482.381 439.568,485.547 443.5,489C 447.188,491.345 451.188,492.845 455.5,493.5C 455.918,494.222 456.584,494.722 457.5,495C 465.983,496.011 474.316,495.344 482.5,493C 484.596,492.263 486.263,491.097 487.5,489.5C 490.196,488.115 492.863,486.782 495.5,485.5C 495.351,484.448 495.517,483.448 496,482.5C 500.007,479.806 502.507,476.139 503.5,471.5C 508.21,462.831 509.71,453.498 508,443.5C 506.476,439.041 504.309,435.041 501.5,431.5C 500.932,427.933 498.932,425.599 495.5,424.5C 491.613,418.891 486.279,415.891 479.5,415.5C 479.38,414.414 478.713,413.747 477.5,413.5C 470.665,410.985 463.998,410.985 457.5,413.5C 453.968,413.31 450.635,413.977 447.5,415.5C 442.167,415.5 436.833,415.5 431.5,415.5C 427.738,414.578 424.071,413.245 420.5,411.5C 417.309,408.806 414.642,405.639 412.5,402C 414.337,399.992 416.004,397.826 417.5,395.5C 420.455,393.878 423.122,391.878 425.5,389.5C 442.097,379.858 460.097,376.192 479.5,378.5C 485.329,380.563 491.329,382.396 497.5,384C 508.629,390.009 518.462,397.842 527,407.5C 528.201,410.872 530.034,413.872 532.5,416.5C 535.938,423.93 538.605,431.596 540.5,439.5C 540.841,447.675 541.508,455.675 542.5,463.5C 543.494,466.124 544.494,468.79 545.5,471.5C 545.337,473.857 545.503,476.19 546,478.5C 547.646,479.779 548.813,481.445 549.5,483.5C 551.51,484.502 553.51,485.502 555.5,486.5C 556.246,487.736 556.579,489.07 556.5,490.5C 558.854,490.838 561.187,491.338 563.5,492C 563.167,492.333 562.833,492.667 562.5,493C 564.81,493.497 567.143,493.663 569.5,493.5C 576.596,495.387 583.93,496.054 591.5,495.5C 593.698,495.88 595.365,495.213 596.5,493.5C 604.14,490.965 610.974,486.965 617,481.5C 627.822,464.339 628.322,447.006 618.5,429.5C 615.162,426.662 612.162,423.495 609.5,420C 607.004,418.92 604.67,417.586 602.5,416C 599.247,415.799 596.247,414.966 593.5,413.5C 593.082,412.778 592.416,412.278 591.5,412C 586.167,411.333 580.833,411.333 575.5,412C 572.524,412.705 569.858,413.871 567.5,415.5C 564.833,415.5 562.167,415.5 559.5,415.5C 555.167,415.5 550.833,415.5 546.5,415.5C 540.333,412.512 534.833,408.512 530,403.5C 529.51,402.207 529.343,400.873 529.5,399.5C 532.472,398.003 535.139,396.003 537.5,393.5C 542,390.522 546.667,387.689 551.5,385C 557.055,383.428 562.388,381.594 567.5,379.5C 578.136,378.346 588.802,378.346 599.5,379.5C 605.975,381.712 612.309,384.212 618.5,387C 620.134,387.494 621.801,387.66 623.5,387.5C 623.809,390.346 625.475,391.846 628.5,392C 631.126,394.323 633.793,396.657 636.5,399C 637.448,399.483 638.448,399.649 639.5,399.5C 639.5,400.5 639.5,401.5 639.5,402.5C 643.107,406.76 646.44,411.094 649.5,415.5C 652.718,420.372 654.718,425.705 655.5,431.5C 656.507,436.951 657.507,442.284 658.5,447.5C 659.164,449.978 659.497,452.645 659.5,455.5C 658.494,462.525 657.327,469.525 656,476.5C 653.123,482.913 650.289,489.246 647.5,495.5C 646.5,495.5 645.5,495.5 644.5,495.5C 644.657,496.873 644.49,498.207 644,499.5C 642.088,501.657 640.421,503.991 639,506.5C 636.491,508.231 633.991,509.898 631.5,511.5C 625.744,514.698 620.411,518.365 615.5,522.5C 612.799,523.249 610.132,524.249 607.5,525.5C 605.517,525.157 604.183,525.824 603.5,527.5C 601.167,527.5 598.833,527.5 596.5,527.5C 589.529,528.29 582.529,528.623 575.5,528.5C 573.052,527.527 570.385,527.194 567.5,527.5C 566.993,526.141 565.993,525.141 564.5,524.5C 560.056,523.587 555.723,522.587 551.5,521.5C 549.307,520.32 546.974,519.32 544.5,518.5C 543.614,517.675 543.281,516.675 543.5,515.5C 541.712,515.785 540.045,515.452 538.5,514.5C 534.682,511.182 531.015,507.682 527.5,504C 523.754,502.778 521.087,503.944 519.5,507.5C 518.188,508.145 517.188,509.145 516.5,510.5C 514.955,511.452 513.288,511.785 511.5,511.5C 511.5,512.833 511.5,514.167 511.5,515.5C 508.446,515.354 506.446,516.687 505.5,519.5C 504.833,519.5 504.167,519.5 503.5,519.5C 498.481,522.324 493.148,524.657 487.5,526.5C 479.582,528.156 471.582,529.156 463.5,529.5C 461.365,527.631 458.698,526.964 455.5,527.5C 448.439,528.033 441.773,526.699 435.5,523.5C 433.508,522.17 431.508,520.836 429.5,519.5C 427.919,517.858 427.253,515.858 427.5,513.5C 422.505,514.418 420.172,512.418 420.5,507.5C 422.355,507.728 423.188,507.061 423,505.5C 422,505.833 421,506.167 420,506.5C 419.653,504.82 418.653,503.82 417,503.5C 415.7,504.707 414.2,505.374 412.5,505.5C 412.714,503.856 412.38,502.356 411.5,501C 408.518,500.502 405.518,500.335 402.5,500.5C 402.5,502.167 402.5,503.833 402.5,505.5C 401.5,505.5 400.5,505.5 399.5,505.5C 399.5,506.833 399.5,508.167 399.5,509.5C 399.5,510.167 399.5,510.833 399.5,511.5C 398.833,511.5 398.167,511.5 397.5,511.5C 394.828,511.948 392.828,513.281 391.5,515.5C 388.536,517.593 385.369,519.593 382,521.5C 376.911,523.479 372.077,525.479 367.5,527.5C 364.833,527.5 362.167,527.5 359.5,527.5C 351.523,528.364 343.523,528.364 335.5,527.5C 330.73,527.308 326.064,526.475 321.5,525C 317.93,522.178 313.93,520.178 309.5,519C 306.082,516.588 302.749,514.088 299.5,511.5C 296.379,506.563 292.379,502.563 287.5,499.5C 286.038,495.243 284.038,491.243 281.5,487.5C 282.735,487.721 283.735,488.388 284.5,489.5C 284.833,488.833 285.167,488.167 285.5,487.5C 284.238,484.978 283.571,482.311 283.5,479.5C 284.822,479.33 285.989,479.663 287,480.5C 287.667,469.5 287.667,458.5 287,447.5C 286.829,452.864 286.329,458.198 285.5,463.5C 284.507,459.558 283.84,455.558 283.5,451.5C 285.154,444.934 285.821,438.267 285.5,431.5C 284.167,431.5 282.833,431.5 281.5,431.5C 280.734,443.496 279.901,455.496 279,467.5C 278.004,463.569 277.504,459.569 277.5,455.5C 278.003,450.156 278.17,444.823 278,439.5C 277.667,438.833 277.333,438.167 277,437.5C 276.328,441.221 275.161,444.555 273.5,447.5C 274.084,440.324 275.417,433.324 277.5,426.5C 278.313,424.739 279.313,423.072 280.5,421.5C 281.265,421.077 282.098,420.743 283,420.5C 286.147,421.662 289.314,422.662 292.5,423.5C 294.5,425.5 296.5,427.5 298.5,429.5C 300.775,433.615 303.275,437.615 306,441.5C 306.171,449.011 306.671,456.345 307.5,463.5C 310.491,471.49 314.491,478.823 319.5,485.5C 322.42,486.442 325.086,487.776 327.5,489.5C 336.226,495.166 345.893,496.999 356.5,495C 357.737,494.768 358.737,494.268 359.5,493.5C 364.91,493.739 369.244,491.739 372.5,487.5C 379.004,483.67 383.671,478.336 386.5,471.5C 387.74,468.976 388.907,466.309 390,463.5C 390.822,455.445 390.488,447.445 389,439.5C 387.627,436.331 385.793,433.665 383.5,431.5C 383.762,430.022 383.429,428.689 382.5,427.5C 375.897,421.034 368.231,416.368 359.5,413.5C 355.946,412.016 352.112,411.349 348,411.5C 345.5,411.667 343,411.833 340.5,412C 339.584,412.278 338.918,412.778 338.5,413.5C 335.014,414.953 331.347,415.619 327.5,415.5C 322.167,415.5 316.833,415.5 311.5,415.5C 304.203,413.035 298.536,408.535 294.5,402C 296.967,398.366 299.967,395.199 303.5,392.5C 308.89,389.475 314.224,386.475 319.5,383.5C 335.12,378.402 351.12,377.069 367.5,379.5 Z"/></g>
<g><path style="opacity:1" fill="#fcfbfa" d="M 198.5,379.5 C 208.142,380.564 217.808,381.564 227.5,382.5C 228.04,383.748 228.707,384.915 229.5,386C 228.811,421.451 228.144,456.951 227.5,492.5C 228.833,492.5 230.167,492.5 231.5,492.5C 245.327,493.331 259.327,493.831 273.5,494C 274.563,495.188 275.897,495.688 277.5,495.5C 279.142,496.803 280.809,498.136 282.5,499.5C 284.696,502.558 286.362,505.891 287.5,509.5C 288.778,516.031 288.778,522.531 287.5,529C 272.833,529.167 258.167,529.333 243.5,529.5C 227.719,529.454 212.053,528.787 196.5,527.5C 196.771,525.62 196.104,524.287 194.5,523.5C 194.5,523.167 194.5,522.833 194.5,522.5C 194.333,476.165 194.5,429.832 195,383.5C 195.66,381.676 196.827,380.343 198.5,379.5 Z"/></g>
<g><path style="opacity:1" fill="#faf9f9" d="M 701.5,381.5 C 701.5,382.167 701.5,382.833 701.5,383.5C 701.167,402.179 701.5,420.845 702.5,439.5C 703.51,436.817 704.51,434.151 705.5,431.5C 705.614,429.282 706.28,427.282 707.5,425.5C 712.069,417.241 715.735,408.574 718.5,399.5C 719.338,399.158 719.672,398.492 719.5,397.5C 721.833,392.833 724.167,388.167 726.5,383.5C 729.029,380.61 732.029,378.61 735.5,377.5C 744.833,377.5 754.167,377.5 763.5,377.5C 764.043,377.56 764.376,377.893 764.5,378.5C 758.897,391.315 753.897,404.315 749.5,417.5C 746.542,421.691 744.542,426.358 743.5,431.5C 741.465,435.76 739.798,440.26 738.5,445C 741.799,456.723 745.466,468.223 749.5,479.5C 751.695,487.424 753.695,495.424 755.5,503.5C 756.761,508.744 757.761,514.077 758.5,519.5C 759.141,520.993 760.141,521.993 761.5,522.5C 761.859,524.766 761.192,526.599 759.5,528C 751.507,528.5 743.507,528.666 735.5,528.5C 730.898,528.696 727.231,527.03 724.5,523.5C 722.814,519.424 721.147,515.424 719.5,511.5C 719.5,510.167 719.5,508.833 719.5,507.5C 714.912,493.54 710.579,479.54 706.5,465.5C 706.5,464.833 706.5,464.167 706.5,463.5C 705.808,460.064 704.808,456.73 703.5,453.5C 702.968,450.54 702.301,450.207 701.5,452.5C 700.683,454.969 700.183,457.635 700,460.5C 699.833,471.667 699.667,482.833 699.5,494C 699.501,505.521 700.168,516.687 701.5,527.5C 701.5,528.167 701.5,528.833 701.5,529.5C 690.005,530.145 678.672,529.312 667.5,527C 666.915,525.698 666.249,524.531 665.5,523.5C 664.51,476.876 664.177,430.209 664.5,383.5C 665.596,381.897 666.93,380.397 668.5,379C 677.424,377.42 686.424,377.087 695.5,378C 697.692,378.926 699.692,380.093 701.5,381.5 Z"/></g>
<g><path style="opacity:1" fill="#ad4a4f" d="M 735.5,377.5 C 732.029,378.61 729.029,380.61 726.5,383.5C 727.604,378.785 730.604,376.785 735.5,377.5 Z"/></g>
<g><path style="opacity:1" fill="#f8f1e7" d="M 231.5,491.5 C 231.5,491.833 231.5,492.167 231.5,492.5C 230.167,492.5 228.833,492.5 227.5,492.5C 228.144,456.951 228.811,421.451 229.5,386C 228.707,384.915 228.04,383.748 227.5,382.5C 217.808,381.564 208.142,380.564 198.5,379.5C 198.611,378.883 198.944,378.383 199.5,378C 207.5,377.333 215.5,377.333 223.5,378C 227.02,378.504 229.52,380.337 231,383.5C 231.5,419.498 231.667,455.498 231.5,491.5 Z"/></g>
<g><path style="opacity:1" fill="#ce3139" d="M 235.5,491.5 C 234.167,491.5 232.833,491.5 231.5,491.5C 231.667,455.498 231.5,419.498 231,383.5C 229.52,380.337 227.02,378.504 223.5,378C 215.5,377.333 207.5,377.333 199.5,378C 198.944,378.383 198.611,378.883 198.5,379.5C 196.827,380.343 195.66,381.676 195,383.5C 194.5,429.832 194.333,476.165 194.5,522.5C 192.827,476.136 191.827,429.47 191.5,382.5C 194.642,381.218 195.975,378.885 195.5,375.5C 206.853,375.168 218.186,375.501 229.5,376.5C 230.025,377.192 230.692,377.692 231.5,378C 230.664,379.243 230.997,380.41 232.5,381.5C 233.333,416.162 233.833,450.829 234,485.5C 234.315,487.586 234.815,489.586 235.5,491.5 Z"/></g>
<g><path style="opacity:1" fill="#fdf4fe" d="M 197.5,383.5 C 198.317,385.969 198.817,388.635 199,391.5C 199.833,431.504 199.667,471.504 198.5,511.5C 197.5,468.839 197.167,426.172 197.5,383.5 Z"/></g>
<g><path style="opacity:1" fill="#a83541" d="M 663.5,383.5 C 663.833,383.5 664.167,383.5 664.5,383.5C 664.177,430.209 664.51,476.876 665.5,523.5C 664.883,523.389 664.383,523.056 664,522.5C 663.5,476.168 663.333,429.835 663.5,383.5 Z"/></g>
<g><path style="opacity:1" fill="#d7282d" d="M 718.5,399.5 C 715.735,408.574 712.069,417.241 707.5,425.5C 707.156,422.38 707.823,419.547 709.5,417C 707.977,414.495 706.977,411.829 706.5,409C 706.581,406.443 707.747,404.61 710,403.5C 710.49,402.207 710.657,400.873 710.5,399.5C 713.167,399.5 715.833,399.5 718.5,399.5 Z"/></g>
<g><path style="opacity:1" fill="#d83918" d="M 417.5,395.5 C 416.004,397.826 414.337,399.992 412.5,402C 414.642,405.639 417.309,408.806 420.5,411.5C 418.801,411.34 417.134,411.506 415.5,412C 414.829,412.986 414.829,414.153 415.5,415.5C 412.239,411.899 408.906,408.233 405.5,404.5C 404.873,403.583 404.539,402.583 404.5,401.5C 406.137,402.218 407.803,402.384 409.5,402C 411.25,398.621 413.917,396.454 417.5,395.5 Z"/></g>
<g><path style="opacity:1" fill="#d3481f" d="M 639.5,402.5 C 640.922,402.709 642.255,403.209 643.5,404C 644.987,406.485 646.821,408.652 649,410.5C 649.494,412.134 649.66,413.801 649.5,415.5C 646.44,411.094 643.107,406.76 639.5,402.5 Z"/></g>
<g><path style="opacity:1" fill="#e06322" d="M 359.5,413.5 C 352.5,413.5 345.5,413.5 338.5,413.5C 338.918,412.778 339.584,412.278 340.5,412C 343,411.833 345.5,411.667 348,411.5C 352.112,411.349 355.946,412.016 359.5,413.5 Z"/></g>
<g><path style="opacity:1" fill="#ce4913" d="M 479.5,415.5 C 472.372,413.76 465.039,413.093 457.5,413.5C 463.998,410.985 470.665,410.985 477.5,413.5C 478.713,413.747 479.38,414.414 479.5,415.5 Z"/></g>
<g><path style="opacity:1" fill="#d85021" d="M 593.5,413.5 C 584.689,413.039 576.022,413.706 567.5,415.5C 569.858,413.871 572.524,412.705 575.5,412C 580.833,411.333 586.167,411.333 591.5,412C 592.416,412.278 593.082,412.778 593.5,413.5 Z"/></g>
<g><path style="opacity:1" fill="#e31f26" d="M 420.5,411.5 C 424.071,413.245 427.738,414.578 431.5,415.5C 432.871,416.787 434.705,417.453 437,417.5C 440.76,417.514 444.26,416.847 447.5,415.5C 450.635,413.977 453.968,413.31 457.5,413.5C 465.039,413.093 472.372,413.76 479.5,415.5C 486.279,415.891 491.613,418.891 495.5,424.5C 495.5,425.5 495.5,426.5 495.5,427.5C 496.5,427.5 497.5,427.5 498.5,427.5C 498.5,428.833 498.5,430.167 498.5,431.5C 499.5,431.5 500.5,431.5 501.5,431.5C 501.34,433.199 501.506,434.866 502,436.5C 503.385,437.551 504.385,438.884 505,440.5C 506.239,446.461 506.573,452.461 506,458.5C 505.131,461.763 503.797,462.096 502,459.5C 501.51,460.793 501.343,462.127 501.5,463.5C 502.5,463.5 503.5,463.5 504.5,463.5C 503.908,466.127 503.575,468.794 503.5,471.5C 502.507,476.139 500.007,479.806 496,482.5C 495.517,483.448 495.351,484.448 495.5,485.5C 492.863,486.782 490.196,488.115 487.5,489.5C 485.088,489.331 482.921,489.997 481,491.5C 479.208,490.963 477.375,490.63 475.5,490.5C 468.978,492.482 462.311,493.482 455.5,493.5C 450.411,490.171 445.077,487.004 439.5,484C 437.198,481.533 435.531,478.7 434.5,475.5C 432.169,474.474 430.169,473.14 428.5,471.5C 427.508,468.177 426.508,464.844 425.5,461.5C 426.933,447.61 424.933,434.276 419.5,421.5C 418.9,419.532 417.567,418.532 415.5,418.5C 415.5,417.5 415.5,416.5 415.5,415.5C 414.829,414.153 414.829,412.986 415.5,412C 417.134,411.506 418.801,411.34 420.5,411.5 Z"/></g>
<g><path style="opacity:1" fill="#f59f34" d="M 431.5,415.5 C 436.833,415.5 442.167,415.5 447.5,415.5C 444.26,416.847 440.76,417.514 437,417.5C 434.705,417.453 432.871,416.787 431.5,415.5 Z"/></g>
<g><path style="opacity:1" fill="#f38932" d="M 311.5,415.5 C 316.833,415.5 322.167,415.5 327.5,415.5C 325.777,416.8 323.61,417.467 321,417.5C 317.523,417.672 314.356,417.006 311.5,415.5 Z"/></g>
<g><path style="opacity:1" fill="#f1952c" d="M 546.5,415.5 C 550.833,415.5 555.167,415.5 559.5,415.5C 558.129,416.787 556.295,417.453 554,417.5C 551.134,417.7 548.634,417.033 546.5,415.5 Z"/></g>
<g><path style="opacity:1" fill="#d1420e" d="M 292.5,423.5 C 289.314,422.662 286.147,421.662 283,420.5C 282.098,420.743 281.265,421.077 280.5,421.5C 280.5,420.167 280.5,418.833 280.5,417.5C 284.641,418.24 288.641,419.24 292.5,420.5C 292.5,421.5 292.5,422.5 292.5,423.5 Z"/></g>
<g><path style="opacity:1" fill="#df8087" d="M 701.5,383.5 C 702.496,399.325 702.83,415.325 702.5,431.5C 703.5,431.5 704.5,431.5 705.5,431.5C 704.51,434.151 703.51,436.817 702.5,439.5C 701.5,420.845 701.167,402.179 701.5,383.5 Z"/></g>
<g><path style="opacity:1" fill="#ce4c0b" d="M 495.5,424.5 C 498.932,425.599 500.932,427.933 501.5,431.5C 500.5,431.5 499.5,431.5 498.5,431.5C 498.5,430.167 498.5,428.833 498.5,427.5C 497.5,427.5 496.5,427.5 495.5,427.5C 495.5,426.5 495.5,425.5 495.5,424.5 Z"/></g>
<g><path style="opacity:1" fill="#d74a4f" d="M 749.5,417.5 C 748.56,422.704 746.56,427.37 743.5,431.5C 744.542,426.358 746.542,421.691 749.5,417.5 Z"/></g>
<g><path style="opacity:1" fill="#d55117" d="M 298.5,429.5 C 301.957,429.96 303.623,431.96 303.5,435.5C 304.5,435.5 305.5,435.5 306.5,435.5C 307.387,444.801 307.721,454.134 307.5,463.5C 306.671,456.345 306.171,449.011 306,441.5C 303.275,437.615 300.775,433.615 298.5,429.5 Z"/></g>
<g><path style="opacity:1" fill="#ce4111" d="M 415.5,419.5 C 415.5,419.167 415.5,418.833 415.5,418.5C 417.567,418.532 418.9,419.532 419.5,421.5C 424.933,434.276 426.933,447.61 425.5,461.5C 424.79,453.303 423.956,444.97 423,436.5C 421.537,430.252 419.037,424.585 415.5,419.5 Z"/></g>
<g><path style="opacity:1" fill="#d13911" d="M 277.5,426.5 C 275.417,433.324 274.084,440.324 273.5,447.5C 273.5,452.833 273.5,458.167 273.5,463.5C 272.179,460.402 271.512,456.902 271.5,453C 271.667,449.5 271.833,446 272,442.5C 273.732,437.65 274.732,432.65 275,427.5C 275.671,426.748 276.504,426.414 277.5,426.5 Z"/></g>
<g><path style="opacity:1" fill="#fbab3a" d="M 655.5,431.5 C 656.793,432.842 657.626,434.509 658,436.5C 658.499,440.152 658.665,443.818 658.5,447.5C 657.507,442.284 656.507,436.951 655.5,431.5 Z"/></g>
<g><path style="opacity:1" fill="#dc2834" d="M 743.5,431.5 C 743.357,437.027 742.357,442.361 740.5,447.5C 741.5,447.5 742.5,447.5 743.5,447.5C 743.351,452.735 744.684,457.568 747.5,462C 747.089,463.144 746.756,464.311 746.5,465.5C 748.119,470.058 749.119,474.725 749.5,479.5C 745.466,468.223 741.799,456.723 738.5,445C 739.798,440.26 741.465,435.76 743.5,431.5 Z"/></g>
<g><path style="opacity:1" fill="#fc8135" d="M 540.5,439.5 C 541.302,440.952 541.802,442.618 542,444.5C 542.5,450.825 542.666,457.158 542.5,463.5C 541.508,455.675 540.841,447.675 540.5,439.5 Z"/></g>
<g><path style="opacity:1" fill="#ce3b0b" d="M 383.5,431.5 C 385.793,433.665 387.627,436.331 389,439.5C 390.488,447.445 390.822,455.445 390,463.5C 388.907,466.309 387.74,468.976 386.5,471.5C 387.297,465.535 387.963,459.535 388.5,453.5C 388.333,450.167 388.167,446.833 388,443.5C 386.227,439.618 384.727,435.618 383.5,431.5 Z"/></g>
<g><path style="opacity:1" fill="#faa82f" d="M 415.5,419.5 C 419.037,424.585 421.537,430.252 423,436.5C 423.956,444.97 424.79,453.303 425.5,461.5C 426.508,464.844 427.508,468.177 428.5,471.5C 426.254,469.351 424.754,466.684 424,463.5C 423.667,457.167 423.333,450.833 423,444.5C 420.308,436.188 417.808,427.855 415.5,419.5 Z"/></g>
<g><path style="opacity:1" fill="#d44113" d="M 501.5,431.5 C 504.309,435.041 506.476,439.041 508,443.5C 509.71,453.498 508.21,462.831 503.5,471.5C 503.575,468.794 503.908,466.127 504.5,463.5C 503.5,463.5 502.5,463.5 501.5,463.5C 501.343,462.127 501.51,460.793 502,459.5C 503.797,462.096 505.131,461.763 506,458.5C 506.573,452.461 506.239,446.461 505,440.5C 504.385,438.884 503.385,437.551 502,436.5C 501.506,434.866 501.34,433.199 501.5,431.5 Z"/></g>
<g><path style="opacity:1" fill="#f5ce09" d="M 281.5,487.5 C 278.208,479.646 275.541,471.646 273.5,463.5C 273.5,458.167 273.5,452.833 273.5,447.5C 275.161,444.555 276.328,441.221 277,437.5C 277.333,438.167 277.667,438.833 278,439.5C 278.17,444.823 278.003,450.156 277.5,455.5C 277.504,459.569 278.004,463.569 279,467.5C 279.901,455.496 280.734,443.496 281.5,431.5C 282.833,431.5 284.167,431.5 285.5,431.5C 285.821,438.267 285.154,444.934 283.5,451.5C 283.84,455.558 284.507,459.558 285.5,463.5C 286.329,458.198 286.829,452.864 287,447.5C 287.667,458.5 287.667,469.5 287,480.5C 285.989,479.663 284.822,479.33 283.5,479.5C 283.571,482.311 284.238,484.978 285.5,487.5C 285.167,488.167 284.833,488.833 284.5,489.5C 283.735,488.388 282.735,487.721 281.5,487.5 Z"/></g>
<g><path style="opacity:1" fill="#f08e91" d="M 703.5,453.5 C 702.167,478.167 702.167,502.833 703.5,527.5C 703.5,528.833 702.833,529.5 701.5,529.5C 701.5,528.833 701.5,528.167 701.5,527.5C 701.5,502.5 701.5,477.5 701.5,452.5C 702.301,450.207 702.968,450.54 703.5,453.5 Z"/></g>
<g><path style="opacity:1" fill="#ca3b12" d="M 428.5,471.5 C 430.169,473.14 432.169,474.474 434.5,475.5C 435.531,478.7 437.198,481.533 439.5,484C 445.077,487.004 450.411,490.171 455.5,493.5C 451.188,492.845 447.188,491.345 443.5,489C 439.568,485.547 435.568,482.381 431.5,479.5C 430.974,476.646 429.974,473.979 428.5,471.5 Z"/></g>
<g><path style="opacity:1" fill="#c82636" d="M 703.5,453.5 C 704.808,456.73 705.808,460.064 706.5,463.5C 705.5,463.5 704.5,463.5 703.5,463.5C 704.187,484.793 704.187,506.126 703.5,527.5C 702.167,502.833 702.167,478.167 703.5,453.5 Z"/></g>
<g><path style="opacity:1" fill="#fab71f" d="M 545.5,471.5 C 551.297,481.3 559.297,488.633 569.5,493.5C 567.143,493.663 564.81,493.497 562.5,493C 562.833,492.667 563.167,492.333 563.5,492C 561.187,491.338 558.854,490.838 556.5,490.5C 556.579,489.07 556.246,487.736 555.5,486.5C 553.51,485.502 551.51,484.502 549.5,483.5C 548.813,481.445 547.646,479.779 546,478.5C 545.503,476.19 545.337,473.857 545.5,471.5 Z"/></g>
<g><path style="opacity:1" fill="#c84410" d="M 372.5,487.5 C 369.244,491.739 364.91,493.739 359.5,493.5C 361.967,491.83 364.633,490.163 367.5,488.5C 369.045,487.548 370.712,487.215 372.5,487.5 Z"/></g>
<g><path style="opacity:1" fill="#c63344" d="M 231.5,491.5 C 232.833,491.5 234.167,491.5 235.5,491.5C 249.171,491.333 262.837,491.5 276.5,492C 277.337,493.011 277.67,494.178 277.5,495.5C 275.897,495.688 274.563,495.188 273.5,494C 259.327,493.831 245.327,493.331 231.5,492.5C 231.5,492.167 231.5,491.833 231.5,491.5 Z"/></g>
<g><path style="opacity:1" fill="#cd430e" d="M 327.5,489.5 C 333.011,490.28 338.344,491.78 343.5,494C 348.828,494.169 354.162,494.002 359.5,493.5C 358.737,494.268 357.737,494.768 356.5,495C 345.893,496.999 336.226,495.166 327.5,489.5 Z"/></g>
<g><path style="opacity:1" fill="#d3380f" d="M 487.5,489.5 C 486.263,491.097 484.596,492.263 482.5,493C 474.316,495.344 465.983,496.011 457.5,495C 456.584,494.722 455.918,494.222 455.5,493.5C 462.311,493.482 468.978,492.482 475.5,490.5C 477.375,490.63 479.208,490.963 481,491.5C 482.921,489.997 485.088,489.331 487.5,489.5 Z"/></g>
<g><path style="opacity:1" fill="#d88f2a" d="M 596.5,493.5 C 595.365,495.213 593.698,495.88 591.5,495.5C 592.552,493.744 594.219,493.077 596.5,493.5 Z"/></g>
<g><path style="opacity:1" fill="#c24a56" d="M 277.5,495.5 C 280.546,495.183 282.213,496.516 282.5,499.5C 280.809,498.136 279.142,496.803 277.5,495.5 Z"/></g>
<g><path style="opacity:1" fill="#c74248" d="M 706.5,465.5 C 710.579,479.54 714.912,493.54 719.5,507.5C 717.907,506.652 716.74,505.319 716,503.5C 710.871,491.289 707.705,478.622 706.5,465.5 Z"/></g>
<g><path style="opacity:1" fill="#fabc1e" d="M 429.5,519.5 C 425.544,517.515 421.878,515.015 418.5,512C 417.552,511.517 416.552,511.351 415.5,511.5C 414.25,509.068 412.75,506.734 411,504.5C 409.938,503.903 408.772,503.57 407.5,503.5C 404.578,505.08 401.911,507.08 399.5,509.5C 399.5,508.167 399.5,506.833 399.5,505.5C 400.5,505.5 401.5,505.5 402.5,505.5C 402.5,503.833 402.5,502.167 402.5,500.5C 405.518,500.335 408.518,500.502 411.5,501C 412.38,502.356 412.714,503.856 412.5,505.5C 414.2,505.374 415.7,504.707 417,503.5C 418.653,503.82 419.653,504.82 420,506.5C 421,506.167 422,505.833 423,505.5C 423.188,507.061 422.355,507.728 420.5,507.5C 420.172,512.418 422.505,514.418 427.5,513.5C 427.253,515.858 427.919,517.858 429.5,519.5 Z"/></g>
<g><path style="opacity:1" fill="#d54b1d" d="M 287.5,499.5 C 292.379,502.563 296.379,506.563 299.5,511.5C 296.647,509.818 293.98,507.818 291.5,505.5C 290.808,506.025 290.308,506.692 290,507.5C 289.65,504.62 288.817,501.953 287.5,499.5 Z"/></g>
<g><path style="opacity:1" fill="#f6fbeb" d="M 701.5,452.5 C 701.5,477.5 701.5,502.5 701.5,527.5C 700.168,516.687 699.501,505.521 699.5,494C 699.667,482.833 699.833,471.667 700,460.5C 700.183,457.635 700.683,454.969 701.5,452.5 Z"/></g>
<g><path style="opacity:1" fill="#f2892f" d="M 397.5,511.5 C 396.292,514.044 394.292,515.378 391.5,515.5C 392.828,513.281 394.828,511.948 397.5,511.5 Z"/></g>
<g><path style="opacity:1" fill="#d93a1e" d="M 519.5,507.5 C 519.5,510.167 519.5,512.833 519.5,515.5C 518.178,515.67 517.011,515.337 516,514.5C 515.626,515.416 515.126,516.25 514.5,517C 511.375,517.544 508.375,518.377 505.5,519.5C 506.446,516.687 508.446,515.354 511.5,515.5C 511.5,514.167 511.5,512.833 511.5,511.5C 513.288,511.785 514.955,511.452 516.5,510.5C 517.188,509.145 518.188,508.145 519.5,507.5 Z"/></g>
<g><path style="opacity:1" fill="#e97c2b" d="M 631.5,511.5 C 630.952,513.394 629.952,515.06 628.5,516.5C 624.02,518.532 619.687,520.532 615.5,522.5C 620.411,518.365 625.744,514.698 631.5,511.5 Z"/></g>
<g><path style="opacity:1" fill="#f7d8ce" d="M 755.5,503.5 C 758.447,509.449 760.447,515.782 761.5,522.5C 760.141,521.993 759.141,520.993 758.5,519.5C 757.761,514.077 756.761,508.744 755.5,503.5 Z"/></g>
<g><path style="opacity:1" fill="#d73c23" d="M 397.5,511.5 C 398.167,511.5 398.833,511.5 399.5,511.5C 397.299,513.71 395.966,516.376 395.5,519.5C 388.755,521.413 382.088,523.746 375.5,526.5C 372.914,527.48 370.247,527.813 367.5,527.5C 372.077,525.479 376.911,523.479 382,521.5C 385.369,519.593 388.536,517.593 391.5,515.5C 394.292,515.378 396.292,514.044 397.5,511.5 Z"/></g>
<g><path style="opacity:1" fill="#ce3d0e" d="M 415.5,511.5 C 416.552,511.351 417.552,511.517 418.5,512C 421.878,515.015 425.544,517.515 429.5,519.5C 431.508,520.836 433.508,522.17 435.5,523.5C 432.784,523.322 430.117,522.822 427.5,522C 423.154,518.831 419.154,515.331 415.5,511.5 Z"/></g>
<g><path style="opacity:1" fill="#c43943" d="M 719.5,511.5 C 721.147,515.424 722.814,519.424 724.5,523.5C 720.701,520.551 719.035,516.551 719.5,511.5 Z"/></g>
<g><path style="opacity:1" fill="#faaf2c" d="M 551.5,521.5 C 555.723,522.587 560.056,523.587 564.5,524.5C 565.993,525.141 566.993,526.141 567.5,527.5C 561.586,526.702 556.253,524.702 551.5,521.5 Z"/></g>
<g><path style="opacity:1" fill="#d6782a" d="M 607.5,525.5 C 606.817,527.176 605.483,527.843 603.5,527.5C 604.183,525.824 605.517,525.157 607.5,525.5 Z"/></g>
<g><path style="opacity:1" fill="#e51e2a" d="M 503.5,519.5 C 504.167,519.5 504.833,519.5 505.5,519.5C 508.375,518.377 511.375,517.544 514.5,517C 515.126,516.25 515.626,515.416 516,514.5C 517.011,515.337 518.178,515.67 519.5,515.5C 519.5,512.833 519.5,510.167 519.5,507.5C 524.363,504.098 528.03,505.098 530.5,510.5C 530,510.833 529.5,511.167 529,511.5C 527.7,510.293 526.2,509.626 524.5,509.5C 524.5,514.167 524.5,518.833 524.5,523.5C 521.492,523.701 518.492,524.034 515.5,524.5C 513.514,524.213 511.68,523.547 510,522.5C 507.249,524.779 504.082,526.279 500.5,527C 505,527.167 509.5,527.333 514,527.5C 519.139,527.419 524.139,526.753 529,525.5C 531.935,527.192 535.102,527.858 538.5,527.5C 538.5,528.5 538.5,529.5 538.5,530.5C 534.833,530.5 531.167,530.5 527.5,530.5C 527.5,531.5 527.5,532.5 527.5,533.5C 522.167,533.5 516.833,533.5 511.5,533.5C 511.5,534.5 511.5,535.5 511.5,536.5C 508.833,536.5 506.167,536.5 503.5,536.5C 503.5,535.5 503.5,534.5 503.5,533.5C 500.833,533.5 498.167,533.5 495.5,533.5C 495.5,531.5 495.5,529.5 495.5,527.5C 494.022,527.762 492.689,527.429 491.5,526.5C 495.473,525.926 499.139,524.593 502.5,522.5C 503.127,521.583 503.461,520.583 503.5,519.5 Z"/></g>
<g><path style="opacity:1" fill="#f3a121" d="M 335.5,527.5 C 343.523,528.364 351.523,528.364 359.5,527.5C 355.893,528.824 351.893,529.491 347.5,529.5C 343.107,529.491 339.107,528.824 335.5,527.5 Z"/></g>
<g><path style="opacity:1" fill="#f59d1e" d="M 455.5,527.5 C 458.698,526.964 461.365,527.631 463.5,529.5C 460.302,530.036 457.635,529.369 455.5,527.5 Z"/></g>
<g><path style="opacity:1" fill="#ef9d21" d="M 596.5,527.5 C 596.082,528.222 595.416,528.722 594.5,529C 587.986,529.82 581.653,529.653 575.5,528.5C 582.529,528.623 589.529,528.29 596.5,527.5 Z"/></g>
<g><path style="opacity:1" fill="#e7b9af" d="M 761.5,522.5 C 762.924,524.515 763.59,526.848 763.5,529.5C 753.985,529.827 744.652,529.494 735.5,528.5C 743.507,528.666 751.507,528.5 759.5,528C 761.192,526.599 761.859,524.766 761.5,522.5 Z"/></g>
<g><path style="opacity:1" fill="#d92335" d="M 287.5,509.5 C 289.124,509.36 290.29,510.027 291,511.5C 291.667,517.5 291.667,523.5 291,529.5C 290.5,530 290,530.5 289.5,531C 259.5,531.667 229.5,531.667 199.5,531C 195.741,529.999 194.074,527.499 194.5,523.5C 196.104,524.287 196.771,525.62 196.5,527.5C 212.053,528.787 227.719,529.454 243.5,529.5C 258.167,529.333 272.833,529.167 287.5,529C 288.778,522.531 288.778,516.031 287.5,509.5 Z"/></g>
<g><path style="opacity:1" fill="#d42a39" d="M 724.5,523.5 C 727.231,527.03 730.898,528.696 735.5,528.5C 744.652,529.494 753.985,529.827 763.5,529.5C 763.389,530.117 763.056,530.617 762.5,531C 760.667,531.167 758.833,531.333 757,531.5C 747.163,530.439 737.329,530.273 727.5,531C 725.7,528.886 724.7,526.386 724.5,523.5 Z"/></g>
<g><path style="opacity:1" fill="#e71d28" d="M 15.5,945.5 C 325.569,945.167 635.569,945.501 945.5,946.5C 635.667,947.5 325.667,947.833 15.5,947.5C 15.5,946.833 15.5,946.167 15.5,945.5 Z"/></g>
<g><path style="opacity:1" fill="#e12028" d="M 946.5,15.5 C 947.5,15.5 948.5,15.5 949.5,15.5C 950.167,326.167 950.833,636.833 951.5,947.5C 951.737,948.791 951.404,949.791 950.5,950.5C 638.519,950.17 326.853,949.17 15.5,947.5C 325.667,947.833 635.667,947.5 945.5,946.5C 946.5,636.334 946.833,326 946.5,15.5 Z"/></g>
<g><path style="opacity:1" fill="#f01a21" d="M 943.5,951.5 C 633.764,951.167 324.097,951.501 14.5,952.5C 168.999,951.167 323.832,950.5 479,950.5C 634,950.5 788.834,950.833 943.5,951.5 Z"/></g>
<g><path style="opacity:1" fill="#e02320" d="M 943.5,951.5 C 945.5,951.5 947.5,951.5 949.5,951.5C 949.5,952.833 949.5,954.167 949.5,955.5C 947.5,955.5 945.5,955.5 943.5,955.5C 943.5,955.167 943.5,954.833 943.5,954.5C 633.833,953.167 324.167,953.167 14.5,954.5C 14.1667,954.5 13.8333,954.5 13.5,954.5C 13.5,953.833 13.5,953.167 13.5,952.5C 13.8333,952.5 14.1667,952.5 14.5,952.5C 324.097,951.501 633.764,951.167 943.5,951.5 Z"/></g>
<g><path style="opacity:1" fill="#ec1532" d="M 956.5,1.5 C 956.833,1.5 957.167,1.5 957.5,1.5C 957.5,3.5 957.5,5.5 957.5,7.5C 957.5,324.167 957.5,640.833 957.5,957.5C 956.833,957.5 956.167,957.5 955.5,957.5C 637.5,957.5 319.5,957.5 1.5,957.5C 1.5,957.167 1.5,956.833 1.5,956.5C 1.83333,956.5 2.16667,956.5 2.5,956.5C 3.5,956.5 4.5,956.5 5.5,956.5C 7.04814,956.179 7.71481,955.179 7.5,953.5C 9.98778,953.683 11.9878,954.683 13.5,956.5C 323.667,956.833 633.667,956.5 943.5,955.5C 945.5,955.5 947.5,955.5 949.5,955.5C 950.167,955.5 950.833,955.5 951.5,955.5C 952.919,956.451 954.585,956.784 956.5,956.5C 956.702,954.05 956.369,951.717 955.5,949.5C 956.5,638.334 956.833,327 956.5,15.5C 956.5,12.5 956.5,9.5 956.5,6.5C 956.5,6.16667 956.5,5.83333 956.5,5.5C 956.5,5.16667 956.5,4.83333 956.5,4.5C 956.5,4.16667 956.5,3.83333 956.5,3.5C 956.5,2.83333 956.5,2.16667 956.5,1.5 Z"/></g>
<g><path style="opacity:1" fill="#e61c29" d="M 13.5,954.5 C 13.8333,954.5 14.1667,954.5 14.5,954.5C 323.862,954.501 633.529,954.501 943.5,954.5C 943.5,954.833 943.5,955.167 943.5,955.5C 633.667,956.5 323.667,956.833 13.5,956.5C 13.5,955.833 13.5,955.167 13.5,954.5 Z"/></g>
<g><path style="opacity:1" fill="#e41e1f" d="M 943.5,954.5 C 633.529,954.501 323.862,954.501 14.5,954.5C 324.167,953.167 633.833,953.167 943.5,954.5 Z"/></g>
<g><path style="opacity:1" fill="#884238" d="M -0.5,957.5 C 0.166667,957.5 0.833333,957.5 1.5,957.5C 319.5,957.5 637.5,957.5 955.5,957.5C 637.5,958.167 319.5,958.833 1.5,959.5C 0.833333,959.5 0.166667,959.5 -0.5,959.5C -0.5,958.833 -0.5,958.167 -0.5,957.5 Z"/></g>
<g><path style="opacity:1" fill="#204936" d="M 957.5,957.5 C 958.167,957.5 958.833,957.5 959.5,957.5C 959.5,958.167 959.5,958.833 959.5,959.5C 958.833,959.5 958.167,959.5 957.5,959.5C 957.5,958.833 957.5,958.167 957.5,957.5 Z"/></g>
<g><path style="opacity:1" fill="#64221d" d="M 955.5,957.5 C 956.167,957.5 956.833,957.5 957.5,957.5C 957.5,958.167 957.5,958.833 957.5,959.5C 638.833,959.5 320.167,959.5 1.5,959.5C 319.5,958.833 637.5,958.167 955.5,957.5 Z"/></g>
</svg>
