<?xml version="1.0" standalone="no"?>
<!DOCTYPE svg PUBLIC "-//W3C//DTD SVG 20010904//EN"
 "http://www.w3.org/TR/2001/REC-SVG-20010904/DTD/svg10.dtd">
<svg version="1.0" xmlns="http://www.w3.org/2000/svg"
 width="1024.000000pt" height="500.000000pt" viewBox="0 0 1024.000000 500.000000"
 preserveAspectRatio="xMidYMid meet">

<g transform="translate(0.000000,500.000000) scale(0.100000,-0.100000)"
fill="#000000" stroke="none">
<path d="M0 2500 l0 -2500 5120 0 5120 0 0 2500 0 2500 -5120 0 -5120 0 0
-2500z m3848 2208 c9 -9 12 -93 12 -316 l0 -303 48 3 47 3 3 299 c1 201 6 304
13 313 16 18 59 16 81 -4 17 -15 18 -38 18 -315 l0 -298 45 0 45 0 0 299 c0
259 2 302 16 315 20 21 53 20 76 -1 17 -15 18 -38 18 -315 l0 -298 45 0 45 0
0 297 c0 262 2 299 17 315 20 22 56 23 77 2 23 -23 24 -714 1 -792 -20 -65
-68 -129 -127 -167 l-47 -30 -3 -805 c-3 -913 2 -856 -85 -907 -75 -44 -162
-24 -217 51 -21 27 -21 39 -26 841 l-5 814 -46 33 c-58 42 -93 83 -122 145
-21 47 -22 59 -25 422 -3 340 -1 375 14 392 19 21 64 25 82 7z m2626 -4 c14
-14 16 -147 16 -1313 l0 -1298 -23 -34 c-70 -104 -206 -105 -277 -2 l-25 37
-3 420 -3 420 -65 67 c-114 119 -109 93 -109 604 0 421 1 444 22 527 57 224
166 399 329 529 78 61 110 71 138 43z m-1176 -344 c184 -30 382 -129 525 -262
61 -57 71 -86 40 -120 -26 -29 -51 -21 -121 40 -124 109 -241 174 -387 214
-66 18 -107 22 -230 22 -165 1 -229 -11 -363 -66 -82 -34 -118 -32 -128 6 -10
42 4 62 64 89 73 32 173 64 237 76 69 12 287 13 363 1z m-33 -261 c232 -43
461 -226 555 -445 79 -181 81 -414 5 -595 -125 -298 -420 -483 -745 -466 -223
11 -417 112 -556 290 -103 132 -152 264 -161 437 -11 222 61 403 227 570 70
71 102 94 180 133 52 26 129 56 170 67 86 22 234 26 325 9z m639 -1301 c61
-27 44 -69 -76 -183 -150 -143 -326 -235 -514 -271 -121 -22 -347 -15 -453 15
-147 43 -304 123 -316 162 -9 28 20 69 49 69 13 0 61 -20 107 -44 46 -24 122
-57 169 -72 78 -25 98 -28 245 -28 138 -1 171 2 239 22 167 48 290 123 431
260 45 45 85 82 88 82 4 0 17 -5 31 -12z m-1430 -91 c21 -16 24 -60 6 -82 -19
-23 -66 -19 -84 7 -20 29 -20 47 1 70 19 21 52 23 77 5z m-2809 -972 c30 -29
30 -31 9 -109 -24 -90 -65 -117 -114 -78 -27 22 -29 57 -5 138 11 38 22 58 38
64 35 14 46 12 72 -15z m415 10 c10 -12 12 -110 11 -438 l-2 -422 48 0 c43 0
49 -3 61 -29 21 -42 -7 -75 -84 -98 -77 -23 -103 -23 -131 4 l-23 21 0 352 c0
194 -3 386 -6 428 l-7 76 -52 -2 c-62 -2 -85 13 -85 56 0 58 20 67 145 67 88
0 115 -3 125 -15z m448 -18 c11 -22 11 -39 3 -78 -7 -30 -11 -190 -11 -404 l0
-355 44 0 c52 0 76 -19 76 -61 0 -22 -8 -34 -31 -48 -39 -24 -140 -45 -169
-36 -36 11 -53 68 -45 148 3 38 3 222 -1 409 l-7 340 -47 -6 c-79 -11 -125 44
-84 102 15 22 21 22 137 20 l122 -3 13 -28z m473 12 c23 -23 22 -58 -1 -142
-19 -66 -93 -88 -121 -35 -19 35 6 153 38 178 33 26 58 25 84 -1z m5267 -11
c9 -20 10 -38 2 -70 -5 -24 -10 -201 -10 -405 l0 -363 44 0 c48 0 76 -19 76
-50 0 -48 -26 -68 -118 -90 -105 -24 -139 13 -128 138 4 41 4 227 0 414 l-7
340 -47 -6 c-79 -11 -125 44 -84 102 15 22 21 22 137 20 121 -3 122 -3 135
-30z m-7658 -98 c16 -16 53 -123 163 -473 13 -43 24 -62 29 -54 4 8 37 118 73
246 36 128 72 245 80 261 22 43 73 54 107 24 17 -16 77 -191 213 -618 58 -184
65 -213 54 -237 -20 -49 -84 -51 -115 -4 -8 13 -38 102 -65 197 -66 232 -129
431 -135 426 -5 -6 -133 -429 -148 -492 -13 -53 -36 -76 -76 -76 -44 0 -59 21
-80 105 -22 92 -127 442 -139 464 -10 17 -21 -16 -107 -351 -35 -136 -71 -259
-80 -273 -31 -48 -107 -42 -120 10 -4 17 21 117 79 313 47 158 101 339 119
402 18 63 40 122 50 132 24 24 73 23 98 -2z m4370 -20 c25 -25 26 -61 1 -91
-17 -21 -24 -23 -120 -20 l-102 2 2 -361 c1 -331 -1 -363 -17 -381 -22 -25
-69 -24 -94 1 -19 19 -20 33 -20 380 l0 360 -99 0 c-92 0 -101 2 -115 22 -22
31 -20 64 4 88 19 19 33 20 280 20 247 0 261 -1 280 -20z m770 -176 c12 -11
14 -58 11 -278 l-3 -264 41 11 c54 14 83 -9 79 -62 -3 -32 -8 -39 -51 -59 -27
-13 -71 -26 -98 -29 -57 -7 -84 10 -94 59 l-7 30 -26 -25 c-57 -53 -110 -72
-202 -72 -99 0 -158 23 -221 86 -174 174 -123 494 94 595 99 46 273 24 326
-40 13 -16 15 -15 25 16 18 54 85 72 126 32z m1553 -3 c23 -11 49 -26 58 -32
13 -10 29 -5 85 22 62 31 77 34 151 33 70 0 91 -5 140 -30 134 -68 183 -228
138 -445 -16 -74 -12 -88 22 -89 16 0 33 -33 33 -64 0 -34 -29 -52 -116 -72
-84 -20 -118 -12 -134 32 -9 22 -5 38 21 91 43 88 67 234 51 309 -15 72 -42
109 -97 129 -85 33 -216 0 -207 -51 18 -107 7 -281 -23 -356 -6 -15 -2 -18 23
-18 54 0 82 -69 44 -103 -17 -16 -64 -29 -153 -43 -29 -5 -41 -2 -59 16 -26
26 -24 73 9 161 43 117 50 263 16 328 -26 51 -61 74 -119 79 -64 5 -110 -8
-165 -49 l-41 -29 0 -183 0 -183 33 4 c22 2 39 -2 50 -13 20 -20 22 -78 3 -94
-7 -6 -50 -19 -96 -28 l-82 -18 -20 25 c-17 21 -19 33 -12 121 3 54 3 177 -1
273 l-7 176 -27 0 c-40 0 -64 22 -64 58 0 54 15 62 119 62 92 0 94 -1 100 -25
3 -14 8 -25 10 -25 2 0 22 10 44 21 23 12 56 26 73 30 49 13 153 2 200 -20z
m1841 18 c14 -7 28 -19 31 -28 4 -9 6 -132 5 -273 l-1 -257 30 12 c58 22 111
-37 82 -91 -12 -23 -118 -62 -167 -62 -35 0 -74 37 -74 71 0 16 -7 14 -46 -16
-166 -127 -407 -55 -485 144 -31 78 -32 213 -1 291 31 79 94 147 166 181 51
24 74 29 139 29 83 0 129 -14 184 -56 32 -24 33 -24 33 -4 0 24 42 70 64 70 8
0 26 -5 40 -11z m-7488 -11 c4 -6 6 -135 5 -286 l-2 -274 36 6 c44 9 75 -13
75 -51 0 -45 -51 -74 -158 -90 -33 -4 -47 -2 -62 12 -19 17 -20 32 -20 297 l0
278 -52 0 c-77 0 -109 42 -78 101 10 17 22 19 130 19 80 0 121 -4 126 -12z
m1331 0 c4 -7 6 -136 4 -287 l-3 -273 40 7 c33 5 44 3 61 -14 45 -45 12 -90
-85 -115 -80 -21 -100 -20 -123 3 -18 18 -19 32 -14 207 3 104 3 228 -2 277
l-7 87 -48 0 c-31 0 -54 6 -64 16 -19 18 -21 75 -4 92 17 17 234 17 245 0z
m495 -5 c30 -27 22 -59 -31 -112 -63 -64 -91 -135 -91 -234 1 -107 40 -179
113 -206 36 -14 147 -14 184 0 15 5 43 24 61 42 l32 31 0 174 0 174 -40 -7
c-53 -9 -90 13 -90 53 0 44 19 61 95 82 95 27 139 27 151 -2 6 -14 9 -169 8
-373 -3 -330 -4 -354 -24 -408 -26 -69 -89 -128 -157 -148 -27 -8 -93 -14
-153 -14 -95 0 -111 3 -162 28 -102 50 -136 120 -83 172 13 14 31 25 40 25 9
0 39 -21 67 -47 50 -48 51 -48 130 -52 61 -2 89 1 120 15 44 20 82 75 92 136
l7 37 -53 -27 c-46 -24 -63 -27 -148 -27 -107 1 -158 18 -224 75 -98 87 -130
258 -74 408 11 29 18 54 16 55 -51 27 -63 45 -54 80 7 31 27 43 110 67 80 23
135 24 158 3z m2984 -15 c63 -33 118 -93 153 -167 22 -48 26 -69 26 -151 0
-83 -4 -103 -29 -158 -122 -265 -499 -267 -628 -4 -30 60 -33 75 -33 157 0 76
4 99 27 147 36 78 101 145 173 180 56 27 66 29 160 26 84 -4 108 -8 151 -30z
m3088 10 c9 -12 16 -32 16 -45 l0 -22 105 29 c58 15 116 35 130 44 29 19 88
21 102 4 6 -7 13 -74 16 -149 6 -125 4 -138 -12 -154 -11 -9 -34 -17 -52 -17
-49 -2 -69 29 -69 109 0 56 -2 64 -17 59 -10 -2 -62 -14 -115 -26 l-98 -22 0
-178 0 -178 40 5 c48 7 80 -16 80 -57 0 -41 -36 -67 -111 -81 -74 -13 -114 -7
-128 19 -16 29 -16 648 -1 667 8 9 29 15 56 15 33 0 46 -5 58 -22z"/>
<path d="M3875 3953 c15 -62 58 -106 150 -153 l30 -15 5 -833 c5 -811 6 -834
24 -848 26 -19 40 -18 59 4 16 17 17 90 17 838 0 454 4 825 9 833 5 8 33 26
62 40 60 29 105 80 115 129 l7 32 -243 0 -242 0 7 -27z"/>
<path d="M6319 4493 c-101 -114 -177 -267 -205 -410 -17 -93 -21 -874 -3 -920
5 -15 45 -63 87 -106 l77 -77 3 -427 c2 -378 5 -429 19 -445 21 -23 45 -23 66
0 16 17 17 116 17 1225 0 723 -4 1207 -9 1207 -5 0 -28 -21 -52 -47z"/>
<path d="M4972 3981 c-186 -46 -349 -175 -429 -341 -54 -111 -68 -173 -66
-300 0 -84 6 -121 27 -186 64 -199 223 -356 431 -425 92 -31 268 -33 360 -5
212 65 377 228 451 446 29 84 27 282 -4 370 -63 181 -174 310 -337 391 -138
68 -287 85 -433 50z m186 -151 c34 -32 28 -66 -15 -89 -27 -14 -56 -2 -73 29
-12 23 0 53 28 69 25 15 36 13 60 -9z m-168 -40 c36 -36 21 -66 -52 -108 -102
-57 -181 -171 -194 -278 -9 -82 -14 -94 -39 -106 -19 -9 -29 -7 -50 6 -21 14
-25 24 -25 69 0 159 114 339 261 414 54 28 73 29 99 3z"/>
<path d="M5335 1313 c-141 -74 -168 -283 -51 -391 113 -104 282 -43 336 122
20 63 1 136 -57 213 -49 65 -160 92 -228 56z"/>
<path d="M8739 1307 c-114 -61 -147 -252 -61 -366 66 -89 201 -93 291 -8 38
36 81 119 81 158 0 44 -30 115 -67 158 -69 81 -159 102 -244 58z"/>
<path d="M6225 1314 c-166 -61 -183 -341 -25 -422 64 -33 160 -28 219 11 83
55 118 202 72 302 -46 101 -160 148 -266 109z"/>
</g>
</svg>
